<mxfile host="Electron" modified="2023-12-21T22:36:44.214Z" agent="Mozilla/5.0 (Windows NT 10.0; Win64; x64) AppleWebKit/537.36 (KHTML, like Gecko) draw.io/22.1.11 Chrome/114.0.5735.289 Electron/25.9.8 Safari/537.36" etag="16jMUY-CAldXaFbXUNpM" version="22.1.11" type="device">
  <diagram name="Страница — 1" id="fu2TCtAzKC9oxH2V1leF">
    <mxGraphModel dx="555" dy="982" grid="1" gridSize="10" guides="1" tooltips="1" connect="1" arrows="1" fold="1" page="1" pageScale="1" pageWidth="827" pageHeight="1169" math="0" shadow="0">
      <root>
        <mxCell id="0" />
        <mxCell id="1" parent="0" />
        <mxCell id="_ZNidpxMVlk76MrEfzKS-4" style="edgeStyle=orthogonalEdgeStyle;rounded=0;orthogonalLoop=1;jettySize=auto;html=1;exitX=0.5;exitY=1;exitDx=0;exitDy=0;entryX=0.5;entryY=0;entryDx=0;entryDy=0;" parent="1" source="_ZNidpxMVlk76MrEfzKS-2" target="_ZNidpxMVlk76MrEfzKS-3" edge="1">
          <mxGeometry relative="1" as="geometry" />
        </mxCell>
        <mxCell id="_ZNidpxMVlk76MrEfzKS-2" value="начало" style="rounded=1;whiteSpace=wrap;html=1;arcSize=50;" parent="1" vertex="1">
          <mxGeometry x="50" y="10" width="100" height="50" as="geometry" />
        </mxCell>
        <mxCell id="_ZNidpxMVlk76MrEfzKS-11" style="edgeStyle=orthogonalEdgeStyle;rounded=0;orthogonalLoop=1;jettySize=auto;html=1;exitX=0.5;exitY=1;exitDx=0;exitDy=0;entryX=0.5;entryY=0;entryDx=0;entryDy=0;" parent="1" source="_ZNidpxMVlk76MrEfzKS-3" target="_ZNidpxMVlk76MrEfzKS-8" edge="1">
          <mxGeometry relative="1" as="geometry" />
        </mxCell>
        <mxCell id="_ZNidpxMVlk76MrEfzKS-3" value="подключение файла&amp;nbsp;lol.txt,&lt;br&gt;присваевание ему переменной input, открытие файла с переменной input" style="rounded=0;whiteSpace=wrap;html=1;" parent="1" vertex="1">
          <mxGeometry x="50" y="80" width="100" height="110" as="geometry" />
        </mxCell>
        <mxCell id="_ZNidpxMVlk76MrEfzKS-13" style="edgeStyle=orthogonalEdgeStyle;rounded=0;orthogonalLoop=1;jettySize=auto;html=1;exitX=0.5;exitY=1;exitDx=0;exitDy=0;entryX=0.5;entryY=0;entryDx=0;entryDy=0;" parent="1" source="_ZNidpxMVlk76MrEfzKS-8" target="_ZNidpxMVlk76MrEfzKS-12" edge="1">
          <mxGeometry relative="1" as="geometry" />
        </mxCell>
        <mxCell id="_ZNidpxMVlk76MrEfzKS-48" style="edgeStyle=orthogonalEdgeStyle;rounded=0;orthogonalLoop=1;jettySize=auto;html=1;exitX=1;exitY=0.5;exitDx=0;exitDy=0;entryX=0.5;entryY=0;entryDx=0;entryDy=0;" parent="1" source="_ZNidpxMVlk76MrEfzKS-8" target="_ZNidpxMVlk76MrEfzKS-22" edge="1">
          <mxGeometry relative="1" as="geometry">
            <Array as="points">
              <mxPoint x="170" y="260" />
              <mxPoint x="170" y="80" />
            </Array>
          </mxGeometry>
        </mxCell>
        <mxCell id="_ZNidpxMVlk76MrEfzKS-8" value="&amp;nbsp;достигнут&lt;br&gt;&amp;nbsp;конец файла" style="rhombus;whiteSpace=wrap;html=1;" parent="1" vertex="1">
          <mxGeometry x="50" y="220" width="100" height="80" as="geometry" />
        </mxCell>
        <mxCell id="_ZNidpxMVlk76MrEfzKS-9" value="да" style="text;html=1;strokeColor=none;fillColor=none;align=center;verticalAlign=middle;whiteSpace=wrap;rounded=0;" parent="1" vertex="1">
          <mxGeometry x="120" y="230" width="60" height="30" as="geometry" />
        </mxCell>
        <mxCell id="_ZNidpxMVlk76MrEfzKS-10" value="нет" style="text;html=1;strokeColor=none;fillColor=none;align=center;verticalAlign=middle;whiteSpace=wrap;rounded=0;" parent="1" vertex="1">
          <mxGeometry x="90" y="290" width="60" height="30" as="geometry" />
        </mxCell>
        <mxCell id="_ZNidpxMVlk76MrEfzKS-15" style="edgeStyle=orthogonalEdgeStyle;rounded=0;orthogonalLoop=1;jettySize=auto;html=1;exitX=0.5;exitY=1;exitDx=0;exitDy=0;entryX=0.5;entryY=0;entryDx=0;entryDy=0;" parent="1" source="_ZNidpxMVlk76MrEfzKS-12" target="_ZNidpxMVlk76MrEfzKS-14" edge="1">
          <mxGeometry relative="1" as="geometry" />
        </mxCell>
        <mxCell id="_ZNidpxMVlk76MrEfzKS-12" value="Ввод:&lt;br&gt;a из файла&lt;br&gt;input" style="shape=parallelogram;perimeter=parallelogramPerimeter;whiteSpace=wrap;html=1;fixedSize=1;" parent="1" vertex="1">
          <mxGeometry x="50" y="320" width="100" height="50" as="geometry" />
        </mxCell>
        <mxCell id="_ZNidpxMVlk76MrEfzKS-17" style="edgeStyle=orthogonalEdgeStyle;rounded=0;orthogonalLoop=1;jettySize=auto;html=1;exitX=0.5;exitY=1;exitDx=0;exitDy=0;entryX=0.5;entryY=0;entryDx=0;entryDy=0;" parent="1" source="_ZNidpxMVlk76MrEfzKS-14" target="_ZNidpxMVlk76MrEfzKS-16" edge="1">
          <mxGeometry relative="1" as="geometry" />
        </mxCell>
        <mxCell id="_ZNidpxMVlk76MrEfzKS-14" value="задаём динну массива arr по его текущей длине + 1" style="rounded=0;whiteSpace=wrap;html=1;" parent="1" vertex="1">
          <mxGeometry x="50" y="390" width="100" height="60" as="geometry" />
        </mxCell>
        <mxCell id="_ZNidpxMVlk76MrEfzKS-46" style="edgeStyle=orthogonalEdgeStyle;rounded=0;orthogonalLoop=1;jettySize=auto;html=1;exitX=0.5;exitY=1;exitDx=0;exitDy=0;" parent="1" source="_ZNidpxMVlk76MrEfzKS-16" edge="1">
          <mxGeometry relative="1" as="geometry">
            <mxPoint x="100" y="200" as="targetPoint" />
            <Array as="points">
              <mxPoint x="100" y="540" />
              <mxPoint x="30" y="540" />
              <mxPoint x="30" y="200" />
            </Array>
          </mxGeometry>
        </mxCell>
        <mxCell id="_ZNidpxMVlk76MrEfzKS-16" value="arr[High(arr)] = a" style="rounded=0;whiteSpace=wrap;html=1;" parent="1" vertex="1">
          <mxGeometry x="50" y="470" width="100" height="50" as="geometry" />
        </mxCell>
        <mxCell id="_ZNidpxMVlk76MrEfzKS-18" value="" style="endArrow=none;dashed=1;html=1;rounded=0;exitX=1;exitY=0.5;exitDx=0;exitDy=0;entryX=0;entryY=0.5;entryDx=0;entryDy=0;entryPerimeter=0;" parent="1" source="_ZNidpxMVlk76MrEfzKS-16" target="_ZNidpxMVlk76MrEfzKS-19" edge="1">
          <mxGeometry width="50" height="50" relative="1" as="geometry">
            <mxPoint x="180" y="500" as="sourcePoint" />
            <mxPoint x="180" y="495" as="targetPoint" />
          </mxGeometry>
        </mxCell>
        <mxCell id="_ZNidpxMVlk76MrEfzKS-19" value="" style="strokeWidth=2;html=1;shape=mxgraph.flowchart.annotation_1;align=left;pointerEvents=1;" parent="1" vertex="1">
          <mxGeometry x="183" y="470" width="10" height="50" as="geometry" />
        </mxCell>
        <mxCell id="_ZNidpxMVlk76MrEfzKS-21" value="High - возвращает верхнюю границу массива" style="text;html=1;strokeColor=none;fillColor=none;align=center;verticalAlign=middle;whiteSpace=wrap;rounded=0;" parent="1" vertex="1">
          <mxGeometry x="183" y="480" width="117" height="30" as="geometry" />
        </mxCell>
        <mxCell id="lJdkL0s9m-dtGxGU7XFx-4" style="edgeStyle=orthogonalEdgeStyle;rounded=0;orthogonalLoop=1;jettySize=auto;html=1;exitX=0.5;exitY=1;exitDx=0;exitDy=0;entryX=0.5;entryY=0;entryDx=0;entryDy=0;" edge="1" parent="1" source="_ZNidpxMVlk76MrEfzKS-22" target="lJdkL0s9m-dtGxGU7XFx-3">
          <mxGeometry relative="1" as="geometry" />
        </mxCell>
        <mxCell id="_ZNidpxMVlk76MrEfzKS-22" value="закрытие файла input" style="rounded=0;whiteSpace=wrap;html=1;" parent="1" vertex="1">
          <mxGeometry x="320" y="95" width="100" height="50" as="geometry" />
        </mxCell>
        <mxCell id="_ZNidpxMVlk76MrEfzKS-33" style="edgeStyle=orthogonalEdgeStyle;rounded=0;orthogonalLoop=1;jettySize=auto;html=1;exitX=0.5;exitY=1;exitDx=0;exitDy=0;entryX=0.5;entryY=0;entryDx=0;entryDy=0;" parent="1" source="_ZNidpxMVlk76MrEfzKS-31" target="lJdkL0s9m-dtGxGU7XFx-6" edge="1">
          <mxGeometry relative="1" as="geometry">
            <mxPoint x="370" y="305" as="targetPoint" />
          </mxGeometry>
        </mxCell>
        <mxCell id="_ZNidpxMVlk76MrEfzKS-31" value="Ввод:&lt;br&gt;z" style="shape=parallelogram;perimeter=parallelogramPerimeter;whiteSpace=wrap;html=1;fixedSize=1;" parent="1" vertex="1">
          <mxGeometry x="320" y="235" width="100" height="50" as="geometry" />
        </mxCell>
        <mxCell id="_ZNidpxMVlk76MrEfzKS-36" value="подключение файла&amp;nbsp;output.txt,&lt;br&gt;присваевание ему переменной input, очищение файла с переменной input" style="rounded=0;whiteSpace=wrap;html=1;" parent="1" vertex="1">
          <mxGeometry x="620" y="95" width="100" height="110" as="geometry" />
        </mxCell>
        <mxCell id="_ZNidpxMVlk76MrEfzKS-40" style="edgeStyle=orthogonalEdgeStyle;rounded=0;orthogonalLoop=1;jettySize=auto;html=1;exitX=0.5;exitY=1;exitDx=0;exitDy=0;exitPerimeter=0;entryX=0.5;entryY=0;entryDx=0;entryDy=0;" parent="1" source="_ZNidpxMVlk76MrEfzKS-37" target="_ZNidpxMVlk76MrEfzKS-39" edge="1">
          <mxGeometry relative="1" as="geometry" />
        </mxCell>
        <mxCell id="_ZNidpxMVlk76MrEfzKS-37" value="цикл 2&amp;nbsp;&lt;br&gt;пока не достигнут конец массива&lt;br&gt;i = № последного элемента массива" style="strokeWidth=2;html=1;shape=mxgraph.flowchart.loop_limit;whiteSpace=wrap;" parent="1" vertex="1">
          <mxGeometry x="620" y="225" width="100" height="110" as="geometry" />
        </mxCell>
        <mxCell id="_ZNidpxMVlk76MrEfzKS-38" style="edgeStyle=orthogonalEdgeStyle;rounded=0;orthogonalLoop=1;jettySize=auto;html=1;exitX=0.5;exitY=1;exitDx=0;exitDy=0;entryX=0.5;entryY=0;entryDx=0;entryDy=0;entryPerimeter=0;" parent="1" source="_ZNidpxMVlk76MrEfzKS-36" target="_ZNidpxMVlk76MrEfzKS-37" edge="1">
          <mxGeometry relative="1" as="geometry" />
        </mxCell>
        <mxCell id="_ZNidpxMVlk76MrEfzKS-39" value="Вывод:&lt;br&gt;arr[i] в файл input&amp;nbsp;" style="shape=parallelogram;perimeter=parallelogramPerimeter;whiteSpace=wrap;html=1;fixedSize=1;" parent="1" vertex="1">
          <mxGeometry x="620" y="355" width="100" height="50" as="geometry" />
        </mxCell>
        <mxCell id="_ZNidpxMVlk76MrEfzKS-45" style="edgeStyle=orthogonalEdgeStyle;rounded=0;orthogonalLoop=1;jettySize=auto;html=1;exitX=0.5;exitY=1;exitDx=0;exitDy=0;entryX=0.5;entryY=0;entryDx=0;entryDy=0;" parent="1" source="_ZNidpxMVlk76MrEfzKS-41" target="_ZNidpxMVlk76MrEfzKS-44" edge="1">
          <mxGeometry relative="1" as="geometry" />
        </mxCell>
        <mxCell id="_ZNidpxMVlk76MrEfzKS-41" value="закрытие файла&amp;nbsp;input" style="rounded=0;whiteSpace=wrap;html=1;" parent="1" vertex="1">
          <mxGeometry x="620" y="495" width="100" height="50" as="geometry" />
        </mxCell>
        <mxCell id="_ZNidpxMVlk76MrEfzKS-44" value="конец" style="rounded=1;whiteSpace=wrap;html=1;arcSize=50;" parent="1" vertex="1">
          <mxGeometry x="620" y="565" width="100" height="50" as="geometry" />
        </mxCell>
        <mxCell id="_ZNidpxMVlk76MrEfzKS-54" style="edgeStyle=orthogonalEdgeStyle;rounded=0;orthogonalLoop=1;jettySize=auto;html=1;exitX=0.5;exitY=0;exitDx=0;exitDy=0;exitPerimeter=0;entryX=0.5;entryY=0;entryDx=0;entryDy=0;" parent="1" source="_ZNidpxMVlk76MrEfzKS-51" target="_ZNidpxMVlk76MrEfzKS-41" edge="1">
          <mxGeometry relative="1" as="geometry" />
        </mxCell>
        <mxCell id="_ZNidpxMVlk76MrEfzKS-51" value="" style="strokeWidth=2;html=1;shape=mxgraph.flowchart.loop_limit;whiteSpace=wrap;rotation=-180;" parent="1" vertex="1">
          <mxGeometry x="620" y="425" width="100" height="50" as="geometry" />
        </mxCell>
        <mxCell id="_ZNidpxMVlk76MrEfzKS-52" value="цикл 2" style="text;html=1;strokeColor=none;fillColor=none;align=center;verticalAlign=middle;whiteSpace=wrap;rounded=0;" parent="1" vertex="1">
          <mxGeometry x="640" y="435" width="60" height="30" as="geometry" />
        </mxCell>
        <mxCell id="_ZNidpxMVlk76MrEfzKS-53" style="edgeStyle=orthogonalEdgeStyle;rounded=0;orthogonalLoop=1;jettySize=auto;html=1;exitX=0.5;exitY=1;exitDx=0;exitDy=0;entryX=0.5;entryY=1;entryDx=0;entryDy=0;entryPerimeter=0;" parent="1" source="_ZNidpxMVlk76MrEfzKS-39" target="_ZNidpxMVlk76MrEfzKS-51" edge="1">
          <mxGeometry relative="1" as="geometry" />
        </mxCell>
        <mxCell id="lJdkL0s9m-dtGxGU7XFx-5" style="edgeStyle=orthogonalEdgeStyle;rounded=0;orthogonalLoop=1;jettySize=auto;html=1;exitX=0.5;exitY=1;exitDx=0;exitDy=0;entryX=0.5;entryY=0;entryDx=0;entryDy=0;" edge="1" parent="1" source="lJdkL0s9m-dtGxGU7XFx-3" target="_ZNidpxMVlk76MrEfzKS-31">
          <mxGeometry relative="1" as="geometry" />
        </mxCell>
        <mxCell id="lJdkL0s9m-dtGxGU7XFx-3" value="n=длина массива (А)" style="rounded=0;whiteSpace=wrap;html=1;" vertex="1" parent="1">
          <mxGeometry x="320" y="166" width="100" height="50" as="geometry" />
        </mxCell>
        <mxCell id="lJdkL0s9m-dtGxGU7XFx-16" style="edgeStyle=orthogonalEdgeStyle;rounded=0;orthogonalLoop=1;jettySize=auto;html=1;exitX=1;exitY=0.5;exitDx=0;exitDy=0;entryX=0.5;entryY=0;entryDx=0;entryDy=0;" edge="1" parent="1" source="lJdkL0s9m-dtGxGU7XFx-6" target="lJdkL0s9m-dtGxGU7XFx-11">
          <mxGeometry relative="1" as="geometry" />
        </mxCell>
        <mxCell id="lJdkL0s9m-dtGxGU7XFx-17" style="edgeStyle=orthogonalEdgeStyle;rounded=0;orthogonalLoop=1;jettySize=auto;html=1;exitX=0.5;exitY=1;exitDx=0;exitDy=0;entryX=0.5;entryY=0;entryDx=0;entryDy=0;" edge="1" parent="1" source="lJdkL0s9m-dtGxGU7XFx-6" target="lJdkL0s9m-dtGxGU7XFx-10">
          <mxGeometry relative="1" as="geometry" />
        </mxCell>
        <mxCell id="lJdkL0s9m-dtGxGU7XFx-6" value="z = 1" style="rhombus;whiteSpace=wrap;html=1;" vertex="1" parent="1">
          <mxGeometry x="320" y="310" width="100" height="60" as="geometry" />
        </mxCell>
        <mxCell id="lJdkL0s9m-dtGxGU7XFx-7" value="да" style="text;html=1;strokeColor=none;fillColor=none;align=center;verticalAlign=middle;whiteSpace=wrap;rounded=0;" vertex="1" parent="1">
          <mxGeometry x="393" y="310" width="60" height="30" as="geometry" />
        </mxCell>
        <mxCell id="lJdkL0s9m-dtGxGU7XFx-8" value="нет" style="text;html=1;strokeColor=none;fillColor=none;align=center;verticalAlign=middle;whiteSpace=wrap;rounded=0;" vertex="1" parent="1">
          <mxGeometry x="360" y="360" width="60" height="30" as="geometry" />
        </mxCell>
        <mxCell id="lJdkL0s9m-dtGxGU7XFx-14" style="edgeStyle=orthogonalEdgeStyle;rounded=0;orthogonalLoop=1;jettySize=auto;html=1;exitX=0.5;exitY=1;exitDx=0;exitDy=0;entryX=0.5;entryY=0;entryDx=0;entryDy=0;" edge="1" parent="1" source="lJdkL0s9m-dtGxGU7XFx-10" target="lJdkL0s9m-dtGxGU7XFx-12">
          <mxGeometry relative="1" as="geometry" />
        </mxCell>
        <mxCell id="lJdkL0s9m-dtGxGU7XFx-10" value="Ввод:&lt;br&gt;z" style="shape=parallelogram;perimeter=parallelogramPerimeter;whiteSpace=wrap;html=1;fixedSize=1;" vertex="1" parent="1">
          <mxGeometry x="320" y="400" width="100" height="50" as="geometry" />
        </mxCell>
        <mxCell id="lJdkL0s9m-dtGxGU7XFx-15" style="edgeStyle=orthogonalEdgeStyle;rounded=0;orthogonalLoop=1;jettySize=auto;html=1;exitX=0.5;exitY=1;exitDx=0;exitDy=0;entryX=0.5;entryY=0;entryDx=0;entryDy=0;" edge="1" parent="1" source="lJdkL0s9m-dtGxGU7XFx-11" target="lJdkL0s9m-dtGxGU7XFx-13">
          <mxGeometry relative="1" as="geometry" />
        </mxCell>
        <mxCell id="lJdkL0s9m-dtGxGU7XFx-11" value="Ввод:&lt;br&gt;z" style="shape=parallelogram;perimeter=parallelogramPerimeter;whiteSpace=wrap;html=1;fixedSize=1;" vertex="1" parent="1">
          <mxGeometry x="440" y="400" width="100" height="50" as="geometry" />
        </mxCell>
        <mxCell id="lJdkL0s9m-dtGxGU7XFx-18" style="edgeStyle=orthogonalEdgeStyle;rounded=0;orthogonalLoop=1;jettySize=auto;html=1;exitX=0.5;exitY=1;exitDx=0;exitDy=0;entryX=0.5;entryY=0;entryDx=0;entryDy=0;" edge="1" parent="1" source="lJdkL0s9m-dtGxGU7XFx-12" target="_ZNidpxMVlk76MrEfzKS-36">
          <mxGeometry relative="1" as="geometry">
            <Array as="points">
              <mxPoint x="370" y="600" />
              <mxPoint x="600" y="600" />
              <mxPoint x="600" y="75" />
              <mxPoint x="670" y="75" />
            </Array>
          </mxGeometry>
        </mxCell>
        <mxCell id="lJdkL0s9m-dtGxGU7XFx-12" value="sorted_obichnaia" style="shape=process;whiteSpace=wrap;html=1;backgroundOutline=1;" vertex="1" parent="1">
          <mxGeometry x="320" y="470" width="100" height="50" as="geometry" />
        </mxCell>
        <mxCell id="lJdkL0s9m-dtGxGU7XFx-19" style="edgeStyle=orthogonalEdgeStyle;rounded=0;orthogonalLoop=1;jettySize=auto;html=1;exitX=0.5;exitY=1;exitDx=0;exitDy=0;" edge="1" parent="1" source="lJdkL0s9m-dtGxGU7XFx-13">
          <mxGeometry relative="1" as="geometry">
            <mxPoint x="489.7058823529412" y="600" as="targetPoint" />
          </mxGeometry>
        </mxCell>
        <mxCell id="lJdkL0s9m-dtGxGU7XFx-13" value="sorted_piramed" style="shape=process;whiteSpace=wrap;html=1;backgroundOutline=1;" vertex="1" parent="1">
          <mxGeometry x="440" y="470" width="100" height="50" as="geometry" />
        </mxCell>
      </root>
    </mxGraphModel>
  </diagram>
</mxfile>
